<svg xmlns="http://www.w3.org/2000/svg" xmlns:xlink="http://www.w3.org/1999/xlink" width="421" zoomAndPan="magnify" viewBox="0 0 315.75 315.749992" height="421" preserveAspectRatio="xMidYMid meet" version="1.2"><defs><clipPath id="0f1af81329"><path d="M 0 0 L 315.476562 0 L 315.476562 315.476562 L 0 315.476562 Z M 0 0 "/></clipPath><clipPath id="55bdb0fc9d"><path d="M 157.738281 0 C 70.621094 0 0 70.621094 0 157.738281 C 0 244.855469 70.621094 315.476562 157.738281 315.476562 C 244.855469 315.476562 315.476562 244.855469 315.476562 157.738281 C 315.476562 70.621094 244.855469 0 157.738281 0 Z M 157.738281 0 "/></clipPath><clipPath id="3073e282e8"><path d="M 0 0 L 315.476562 0 L 315.476562 315.476562 L 0 315.476562 Z M 0 0 "/></clipPath><clipPath id="33794f805d"><path d="M 157.738281 0 C 70.621094 0 0 70.621094 0 157.738281 C 0 244.855469 70.621094 315.476562 157.738281 315.476562 C 244.855469 315.476562 315.476562 244.855469 315.476562 157.738281 C 315.476562 70.621094 244.855469 0 157.738281 0 Z M 157.738281 0 "/></clipPath><clipPath id="0c080d82ba"><rect x="0" width="316" y="0" height="316"/></clipPath><clipPath id="9f976cd467"><path d="M 86.460938 76 L 270.816406 76 L 270.816406 239 L 86.460938 239 Z M 86.460938 76 "/></clipPath><clipPath id="34b7fb5621"><path d="M 56.726562 104.515625 L 115.152344 104.515625 L 115.152344 112.253906 L 56.726562 112.253906 Z M 56.726562 104.515625 "/></clipPath><clipPath id="14068fce86"><path d="M 60.597656 104.515625 L 111.273438 104.515625 C 112.300781 104.515625 113.28125 104.925781 114.007812 105.648438 C 114.734375 106.375 115.140625 107.359375 115.140625 108.386719 C 115.140625 109.410156 114.734375 110.394531 114.007812 111.121094 C 113.28125 111.847656 112.300781 112.253906 111.273438 112.253906 L 60.597656 112.253906 C 59.570312 112.253906 58.585938 111.847656 57.859375 111.121094 C 57.136719 110.394531 56.726562 109.410156 56.726562 108.386719 C 56.726562 107.359375 57.136719 106.375 57.859375 105.648438 C 58.585938 104.925781 59.570312 104.515625 60.597656 104.515625 Z M 60.597656 104.515625 "/></clipPath><clipPath id="40de74055c"><path d="M 0.726562 0.515625 L 59.152344 0.515625 L 59.152344 8.253906 L 0.726562 8.253906 Z M 0.726562 0.515625 "/></clipPath><clipPath id="db6ae548c7"><path d="M 4.597656 0.515625 L 55.273438 0.515625 C 56.300781 0.515625 57.28125 0.925781 58.007812 1.648438 C 58.734375 2.375 59.140625 3.359375 59.140625 4.386719 C 59.140625 5.410156 58.734375 6.394531 58.007812 7.121094 C 57.28125 7.847656 56.300781 8.253906 55.273438 8.253906 L 4.597656 8.253906 C 3.570312 8.253906 2.585938 7.847656 1.859375 7.121094 C 1.136719 6.394531 0.726562 5.410156 0.726562 4.386719 C 0.726562 3.359375 1.136719 2.375 1.859375 1.648438 C 2.585938 0.925781 3.570312 0.515625 4.597656 0.515625 Z M 4.597656 0.515625 "/></clipPath><clipPath id="cf8b99c303"><rect x="0" width="60" y="0" height="9"/></clipPath><clipPath id="14fa075d54"><path d="M 29.621094 126.402344 L 115.15625 126.402344 L 115.15625 134.140625 L 29.621094 134.140625 Z M 29.621094 126.402344 "/></clipPath><clipPath id="d534fae74d"><path d="M 33.492188 126.402344 L 111.273438 126.402344 C 112.300781 126.402344 113.28125 126.808594 114.007812 127.535156 C 114.734375 128.261719 115.140625 129.246094 115.140625 130.269531 C 115.140625 131.296875 114.734375 132.28125 114.007812 133.007812 C 113.28125 133.734375 112.300781 134.140625 111.273438 134.140625 L 33.492188 134.140625 C 32.464844 134.140625 31.480469 133.734375 30.753906 133.007812 C 30.03125 132.28125 29.621094 131.296875 29.621094 130.269531 C 29.621094 129.246094 30.03125 128.261719 30.753906 127.535156 C 31.480469 126.808594 32.464844 126.402344 33.492188 126.402344 Z M 33.492188 126.402344 "/></clipPath><clipPath id="261bacd109"><path d="M 0.621094 0.402344 L 86.15625 0.402344 L 86.15625 8.140625 L 0.621094 8.140625 Z M 0.621094 0.402344 "/></clipPath><clipPath id="27fd493c93"><path d="M 4.492188 0.402344 L 82.273438 0.402344 C 83.300781 0.402344 84.28125 0.808594 85.007812 1.535156 C 85.734375 2.261719 86.140625 3.246094 86.140625 4.269531 C 86.140625 5.296875 85.734375 6.28125 85.007812 7.007812 C 84.28125 7.734375 83.300781 8.140625 82.273438 8.140625 L 4.492188 8.140625 C 3.464844 8.140625 2.480469 7.734375 1.753906 7.007812 C 1.03125 6.28125 0.621094 5.296875 0.621094 4.269531 C 0.621094 3.246094 1.03125 2.261719 1.753906 1.535156 C 2.480469 0.808594 3.464844 0.402344 4.492188 0.402344 Z M 4.492188 0.402344 "/></clipPath><clipPath id="010eedf548"><rect x="0" width="87" y="0" height="9"/></clipPath><clipPath id="9a285fd719"><path d="M 56.726562 147.96875 L 115.152344 147.96875 L 115.152344 155.707031 L 56.726562 155.707031 Z M 56.726562 147.96875 "/></clipPath><clipPath id="19d709dcdb"><path d="M 60.597656 147.96875 L 111.273438 147.96875 C 112.300781 147.96875 113.28125 148.378906 114.007812 149.105469 C 114.734375 149.828125 115.140625 150.8125 115.140625 151.839844 C 115.140625 152.867188 114.734375 153.847656 114.007812 154.574219 C 113.28125 155.300781 112.300781 155.707031 111.273438 155.707031 L 60.597656 155.707031 C 59.570312 155.707031 58.585938 155.300781 57.859375 154.574219 C 57.136719 153.847656 56.726562 152.867188 56.726562 151.839844 C 56.726562 150.8125 57.136719 149.828125 57.859375 149.105469 C 58.585938 148.378906 59.570312 147.96875 60.597656 147.96875 Z M 60.597656 147.96875 "/></clipPath><clipPath id="b5adb47cbe"><path d="M 0.726562 0.96875 L 59.152344 0.96875 L 59.152344 8.707031 L 0.726562 8.707031 Z M 0.726562 0.96875 "/></clipPath><clipPath id="6b93bb9541"><path d="M 4.597656 0.96875 L 55.273438 0.96875 C 56.300781 0.96875 57.28125 1.378906 58.007812 2.105469 C 58.734375 2.828125 59.140625 3.8125 59.140625 4.839844 C 59.140625 5.867188 58.734375 6.847656 58.007812 7.574219 C 57.28125 8.300781 56.300781 8.707031 55.273438 8.707031 L 4.597656 8.707031 C 3.570312 8.707031 2.585938 8.300781 1.859375 7.574219 C 1.136719 6.847656 0.726562 5.867188 0.726562 4.839844 C 0.726562 3.8125 1.136719 2.828125 1.859375 2.105469 C 2.585938 1.378906 3.570312 0.96875 4.597656 0.96875 Z M 4.597656 0.96875 "/></clipPath><clipPath id="4e045b0bc0"><rect x="0" width="60" y="0" height="9"/></clipPath></defs><g id="c862ba4717"><g clip-rule="nonzero" clip-path="url(#0f1af81329)"><g clip-rule="nonzero" clip-path="url(#55bdb0fc9d)"><g transform="matrix(1,0,0,1,0,0)"><g clip-path="url(#0c080d82ba)"><g clip-rule="nonzero" clip-path="url(#3073e282e8)"><g clip-rule="nonzero" clip-path="url(#33794f805d)"><path style=" stroke:none;fill-rule:nonzero;fill:#ffffff;fill-opacity:1;" d="M 0 0 L 315.476562 0 L 315.476562 315.476562 L 0 315.476562 Z M 0 0 "/></g></g></g></g></g></g><g clip-rule="nonzero" clip-path="url(#9f976cd467)"><path style=" stroke:none;fill-rule:nonzero;fill:#e67319;fill-opacity:1;" d="M 164.015625 222.046875 C 164.015625 225.679688 161.066406 228.625 157.425781 228.625 C 153.785156 228.625 150.835938 225.679688 150.835938 222.046875 C 150.835938 218.410156 153.785156 215.464844 157.425781 215.464844 C 161.066406 215.464844 164.015625 218.410156 164.015625 222.046875 Z M 239.835938 222.160156 C 239.835938 225.792969 236.886719 228.738281 233.246094 228.738281 C 229.605469 228.738281 226.65625 225.792969 226.65625 222.160156 C 226.65625 218.523438 229.605469 215.578125 233.246094 215.578125 C 236.886719 215.578125 239.835938 218.523438 239.835938 222.160156 Z M 263.914062 98.105469 C 256.886719 98.117188 249.859375 98.117188 242.828125 98.125 C 243.578125 100.433594 244.191406 102.832031 244.601562 105.335938 C 246.386719 118.792969 242.527344 130.5625 233.9375 140.910156 C 230.28125 145.308594 225.625 148.457031 220.765625 151.34375 C 214.941406 154.003906 208.894531 155.828125 202.449219 156.105469 C 194.582031 156.449219 187.183594 154.648438 180.113281 151.304688 C 176.984375 149.402344 173.859375 147.507812 171.09375 145.074219 C 166.667969 141.183594 162.875 136.738281 160.414062 131.414062 C 156.589844 123.160156 154.917969 114.460938 156.277344 105.335938 C 156.652344 102.871094 157.246094 100.496094 157.984375 98.195312 C 150.6875 98.199219 143.390625 98.199219 136.09375 98.210938 C 134.164062 98.214844 133.617188 97.597656 133.273438 95.867188 C 132.3125 91.019531 131.191406 86.199219 130.074219 81.386719 C 129.292969 78.019531 127.4375 76.605469 123.9375 76.601562 C 113.75 76.597656 103.5625 76.6875 93.375 76.550781 C 90.121094 76.507812 87.855469 77.574219 86.539062 80.554688 C 86.539062 81.511719 86.539062 82.46875 86.539062 83.429688 C 87.859375 86.398438 90.117188 87.488281 93.378906 87.429688 C 101.886719 87.277344 110.402344 87.410156 118.917969 87.347656 C 120.066406 87.335938 120.433594 87.75 120.652344 88.746094 C 125.226562 109.402344 129.8125 130.054688 134.398438 150.710938 C 136.101562 158.390625 137.765625 166.078125 139.527344 173.746094 C 139.742188 174.703125 139.566406 175.035156 138.730469 175.492188 C 132.066406 179.101562 128.722656 186.46875 130.480469 193.492188 C 132.339844 200.898438 138.714844 205.859375 146.476562 205.921875 C 148.859375 205.941406 151.238281 205.925781 153.6875 206.0625 C 148.972656 207.46875 145.203125 210.035156 142.84375 214.417969 C 140.5 218.777344 140.308594 223.269531 141.941406 227.910156 C 144.367188 234.804688 152.109375 239.25 159.640625 238.023438 C 167.316406 236.777344 173.046875 230.230469 173.234375 222.5 C 173.425781 214.511719 167.886719 207.753906 159.8125 206.125 C 161.453125 205.855469 224.578125 205.730469 229.605469 206.089844 C 224.902344 207.476562 221.128906 210.03125 218.761719 214.398438 C 216.367188 218.824219 216.199219 223.394531 217.898438 228.0625 C 220.449219 235.082031 228.300781 239.339844 236.066406 237.945312 C 243.484375 236.613281 249.117188 229.816406 249.152344 222.160156 C 249.179688 214.320312 243.597656 207.652344 235.726562 205.925781 C 238.28125 205.925781 240.84375 205.933594 243.402344 205.921875 C 246.785156 205.90625 249.117188 203.742188 249.148438 200.613281 C 249.179688 197.394531 246.835938 195.152344 243.375 195.152344 C 211.417969 195.144531 179.46875 195.144531 147.511719 195.15625 C 146.117188 195.15625 144.753906 195.066406 143.527344 194.339844 C 141.625 193.210938 140.5625 190.859375 141 188.828125 C 141.523438 186.402344 143.296875 184.753906 145.804688 184.429688 C 146.511719 184.34375 147.238281 184.371094 147.957031 184.371094 C 179.429688 184.371094 210.90625 184.371094 242.378906 184.371094 C 246.632812 184.371094 248.195312 183.234375 249.355469 179.1875 C 256.242188 155.144531 263.113281 131.097656 270 107.058594 C 270.175781 106.460938 270.136719 105.757812 270.738281 105.339844 C 270.738281 104.261719 270.738281 103.1875 270.738281 102.109375 C 269.421875 99.140625 267.171875 98.101562 263.914062 98.105469 "/></g><path style=" stroke:none;fill-rule:nonzero;fill:#ce336f;fill-opacity:1;" d="M 194.957031 126.832031 C 196.601562 126.753906 197.964844 126.070312 199.121094 124.917969 C 203.871094 120.160156 208.636719 115.414062 213.382812 110.644531 C 215.777344 108.242188 215.9375 105.117188 213.832031 103.011719 C 211.71875 100.910156 208.605469 101.085938 206.191406 103.476562 C 202.914062 106.71875 199.628906 109.949219 196.417969 113.253906 C 195.460938 114.238281 194.898438 114.515625 193.78125 113.359375 C 191.597656 111.09375 188.449219 111.089844 186.414062 113.113281 C 184.378906 115.144531 184.4375 118.242188 186.613281 120.503906 C 188.25 122.203125 189.953125 123.839844 191.617188 125.515625 C 192.539062 126.453125 193.664062 126.835938 194.957031 126.832031 Z M 216.28125 143.203125 C 211.652344 145.316406 206.847656 146.765625 201.722656 146.992188 C 195.472656 147.265625 189.589844 145.828125 183.96875 143.175781 C 181.484375 141.660156 179 140.15625 176.796875 138.222656 C 173.285156 135.128906 170.265625 131.59375 168.308594 127.359375 C 165.273438 120.800781 163.945312 113.886719 165.023438 106.632812 C 167.703125 88.96875 182.707031 75.933594 200.894531 76.320312 C 217.820312 76.675781 232.269531 88.546875 235.226562 106.632812 C 236.648438 117.332031 233.582031 126.6875 226.75 134.914062 C 223.84375 138.40625 220.140625 140.910156 216.28125 143.203125 "/><g clip-rule="nonzero" clip-path="url(#34b7fb5621)"><g clip-rule="nonzero" clip-path="url(#14068fce86)"><g transform="matrix(1,0,0,1,56,104)"><g clip-path="url(#cf8b99c303)"><g clip-rule="nonzero" clip-path="url(#40de74055c)"><g clip-rule="nonzero" clip-path="url(#db6ae548c7)"><path style=" stroke:none;fill-rule:nonzero;fill:#e67319;fill-opacity:1;" d="M 0.726562 0.515625 L 59.152344 0.515625 L 59.152344 8.253906 L 0.726562 8.253906 Z M 0.726562 0.515625 "/></g></g></g></g></g></g><g clip-rule="nonzero" clip-path="url(#14fa075d54)"><g clip-rule="nonzero" clip-path="url(#d534fae74d)"><g transform="matrix(1,0,0,1,29,126)"><g clip-path="url(#010eedf548)"><g clip-rule="nonzero" clip-path="url(#261bacd109)"><g clip-rule="nonzero" clip-path="url(#27fd493c93)"><path style=" stroke:none;fill-rule:nonzero;fill:#e67319;fill-opacity:1;" d="M 0.621094 0.402344 L 86.15625 0.402344 L 86.15625 8.140625 L 0.621094 8.140625 Z M 0.621094 0.402344 "/></g></g></g></g></g></g><g clip-rule="nonzero" clip-path="url(#9a285fd719)"><g clip-rule="nonzero" clip-path="url(#19d709dcdb)"><g transform="matrix(1,0,0,1,56,147)"><g clip-path="url(#4e045b0bc0)"><g clip-rule="nonzero" clip-path="url(#b5adb47cbe)"><g clip-rule="nonzero" clip-path="url(#6b93bb9541)"><path style=" stroke:none;fill-rule:nonzero;fill:#e67319;fill-opacity:1;" d="M 0.726562 0.96875 L 59.152344 0.96875 L 59.152344 8.707031 L 0.726562 8.707031 Z M 0.726562 0.96875 "/></g></g></g></g></g></g></g></svg>