<svg xmlns="http://www.w3.org/2000/svg" xmlns:xlink="http://www.w3.org/1999/xlink" width="477" zoomAndPan="magnify" viewBox="0 0 357.75 242.999999" height="324" preserveAspectRatio="xMidYMid meet" version="1.2"><defs><clipPath id="b8b2a69e1d"><path d="M 0 0.0859375 L 357 0.0859375 L 357 242.914062 L 0 242.914062 Z M 0 0.0859375 "/></clipPath><clipPath id="e66d439708"><path d="M 84.078125 1 L 356.859375 1 L 356.859375 242 L 84.078125 242 Z M 84.078125 1 "/></clipPath><clipPath id="f375453835"><path d="M 199 0.0859375 L 305 0.0859375 L 305 106 L 199 106 Z M 199 0.0859375 "/></clipPath><clipPath id="55e141245e"><path d="M 40.09375 42.402344 L 126.515625 42.402344 L 126.515625 53.847656 L 40.09375 53.847656 Z M 40.09375 42.402344 "/></clipPath><clipPath id="c8d5be6a73"><path d="M 45.816406 42.402344 L 120.78125 42.402344 C 122.300781 42.402344 123.753906 43.007812 124.828125 44.078125 C 125.902344 45.152344 126.503906 46.609375 126.503906 48.125 C 126.503906 49.644531 125.902344 51.097656 124.828125 52.171875 C 123.753906 53.246094 122.300781 53.847656 120.78125 53.847656 L 45.816406 53.847656 C 44.300781 53.847656 42.84375 53.246094 41.773438 52.171875 C 40.699219 51.097656 40.09375 49.644531 40.09375 48.125 C 40.09375 46.609375 40.699219 45.152344 41.773438 44.078125 C 42.84375 43.007812 44.300781 42.402344 45.816406 42.402344 Z M 45.816406 42.402344 "/></clipPath><clipPath id="3276b81166"><path d="M 0.09375 0.402344 L 86.515625 0.402344 L 86.515625 11.847656 L 0.09375 11.847656 Z M 0.09375 0.402344 "/></clipPath><clipPath id="e565012160"><path d="M 5.816406 0.402344 L 80.78125 0.402344 C 82.300781 0.402344 83.753906 1.007812 84.828125 2.078125 C 85.902344 3.152344 86.503906 4.609375 86.503906 6.125 C 86.503906 7.644531 85.902344 9.097656 84.828125 10.171875 C 83.753906 11.246094 82.300781 11.847656 80.78125 11.847656 L 5.816406 11.847656 C 4.300781 11.847656 2.84375 11.246094 1.773438 10.171875 C 0.699219 9.097656 0.09375 7.644531 0.09375 6.125 C 0.09375 4.609375 0.699219 3.152344 1.773438 2.078125 C 2.84375 1.007812 4.300781 0.402344 5.816406 0.402344 Z M 5.816406 0.402344 "/></clipPath><clipPath id="6d1eed074c"><rect x="0" width="87" y="0" height="12"/></clipPath><clipPath id="58b4185540"><path d="M 0 74.777344 L 126.527344 74.777344 L 126.527344 86.222656 L 0 86.222656 Z M 0 74.777344 "/></clipPath><clipPath id="5359674496"><path d="M 5.722656 74.777344 L 120.78125 74.777344 C 122.300781 74.777344 123.753906 75.378906 124.828125 76.453125 C 125.902344 77.527344 126.503906 78.980469 126.503906 80.5 C 126.503906 82.019531 125.902344 83.472656 124.828125 84.546875 C 123.753906 85.621094 122.300781 86.222656 120.78125 86.222656 L 5.722656 86.222656 C 4.203125 86.222656 2.75 85.621094 1.675781 84.546875 C 0.601562 83.472656 0 82.019531 0 80.5 C 0 78.980469 0.601562 77.527344 1.675781 76.453125 C 2.75 75.378906 4.203125 74.777344 5.722656 74.777344 Z M 5.722656 74.777344 "/></clipPath><clipPath id="0691211b2d"><path d="M 0 0.777344 L 126.527344 0.777344 L 126.527344 12.222656 L 0 12.222656 Z M 0 0.777344 "/></clipPath><clipPath id="9a69786fd9"><path d="M 5.722656 0.777344 L 120.78125 0.777344 C 122.300781 0.777344 123.753906 1.378906 124.828125 2.453125 C 125.902344 3.527344 126.503906 4.980469 126.503906 6.5 C 126.503906 8.019531 125.902344 9.472656 124.828125 10.546875 C 123.753906 11.621094 122.300781 12.222656 120.78125 12.222656 L 5.722656 12.222656 C 4.203125 12.222656 2.75 11.621094 1.675781 10.546875 C 0.601562 9.472656 0 8.019531 0 6.5 C 0 4.980469 0.601562 3.527344 1.675781 2.453125 C 2.75 1.378906 4.203125 0.777344 5.722656 0.777344 Z M 5.722656 0.777344 "/></clipPath><clipPath id="e2de9f51a1"><rect x="0" width="127" y="0" height="13"/></clipPath><clipPath id="6ff5f21592"><path d="M 40.09375 106.679688 L 126.515625 106.679688 L 126.515625 118.125 L 40.09375 118.125 Z M 40.09375 106.679688 "/></clipPath><clipPath id="1040ef452c"><path d="M 45.816406 106.679688 L 120.78125 106.679688 C 122.300781 106.679688 123.753906 107.285156 124.828125 108.355469 C 125.902344 109.429688 126.503906 110.886719 126.503906 112.402344 C 126.503906 113.921875 125.902344 115.378906 124.828125 116.449219 C 123.753906 117.523438 122.300781 118.125 120.78125 118.125 L 45.816406 118.125 C 44.300781 118.125 42.84375 117.523438 41.773438 116.449219 C 40.699219 115.378906 40.09375 113.921875 40.09375 112.402344 C 40.09375 110.886719 40.699219 109.429688 41.773438 108.355469 C 42.84375 107.285156 44.300781 106.679688 45.816406 106.679688 Z M 45.816406 106.679688 "/></clipPath><clipPath id="21aba217c2"><path d="M 0.09375 0.679688 L 86.515625 0.679688 L 86.515625 12.125 L 0.09375 12.125 Z M 0.09375 0.679688 "/></clipPath><clipPath id="0785477826"><path d="M 5.816406 0.679688 L 80.78125 0.679688 C 82.300781 0.679688 83.753906 1.285156 84.828125 2.355469 C 85.902344 3.429688 86.503906 4.886719 86.503906 6.402344 C 86.503906 7.921875 85.902344 9.378906 84.828125 10.449219 C 83.753906 11.523438 82.300781 12.125 80.78125 12.125 L 5.816406 12.125 C 4.300781 12.125 2.84375 11.523438 1.773438 10.449219 C 0.699219 9.378906 0.09375 7.921875 0.09375 6.402344 C 0.09375 4.886719 0.699219 3.429688 1.773438 2.355469 C 2.84375 1.285156 4.300781 0.679688 5.816406 0.679688 Z M 5.816406 0.679688 "/></clipPath><clipPath id="57c36cf30c"><rect x="0" width="87" y="0" height="13"/></clipPath><clipPath id="25ab38d514"><rect x="0" width="357" y="0" height="243"/></clipPath></defs><g id="c841243782"><g clip-rule="nonzero" clip-path="url(#b8b2a69e1d)"><g transform="matrix(1,0,0,1,0,-0.000000000000019179)"><g clip-path="url(#25ab38d514)"><g clip-rule="nonzero" clip-path="url(#e66d439708)"><path style=" stroke:none;fill-rule:nonzero;fill:#e67319;fill-opacity:1;" d="M 198.832031 217.25 C 198.832031 222.648438 194.464844 227.027344 189.082031 227.027344 C 183.695312 227.027344 179.328125 222.648438 179.328125 217.25 C 179.328125 211.847656 183.695312 207.46875 189.082031 207.46875 C 194.464844 207.46875 198.832031 211.847656 198.832031 217.25 Z M 311.023438 217.417969 C 311.023438 222.820312 306.65625 227.195312 301.269531 227.195312 C 295.886719 227.195312 291.519531 222.820312 291.519531 217.417969 C 291.519531 212.015625 295.886719 207.640625 301.269531 207.640625 C 306.65625 207.640625 311.023438 212.015625 311.023438 217.417969 Z M 346.652344 33.070312 C 336.253906 33.089844 325.851562 33.089844 315.449219 33.101562 C 316.558594 36.53125 317.464844 40.09375 318.074219 43.816406 C 320.714844 63.8125 315.003906 81.304688 302.292969 96.679688 C 296.886719 103.214844 289.992188 107.894531 282.800781 112.183594 C 274.183594 116.136719 265.242188 118.847656 255.703125 119.261719 C 244.0625 119.769531 233.113281 117.09375 222.648438 112.128906 C 218.019531 109.300781 213.398438 106.480469 209.300781 102.863281 C 202.757812 97.085938 197.148438 90.480469 193.5 82.566406 C 187.847656 70.300781 185.371094 57.375 187.382812 43.816406 C 187.933594 40.15625 188.816406 36.625 189.90625 33.203125 C 179.109375 33.207031 168.3125 33.207031 157.515625 33.226562 C 154.660156 33.234375 153.851562 32.316406 153.34375 29.742188 C 151.921875 22.539062 150.265625 15.378906 148.609375 8.226562 C 147.453125 3.21875 144.707031 1.121094 139.53125 1.117188 C 124.457031 1.109375 109.378906 1.242188 94.304688 1.039062 C 89.492188 0.976562 86.140625 2.5625 84.191406 6.988281 C 84.191406 8.414062 84.191406 9.832031 84.191406 11.257812 C 86.144531 15.675781 89.484375 17.292969 94.3125 17.207031 C 106.902344 16.980469 119.5 17.175781 132.101562 17.082031 C 133.800781 17.066406 134.34375 17.683594 134.667969 19.160156 C 141.433594 49.859375 148.222656 80.550781 155.003906 111.242188 C 157.527344 122.652344 159.988281 134.078125 162.59375 145.476562 C 162.914062 146.894531 162.652344 147.390625 161.417969 148.070312 C 151.554688 153.433594 146.605469 164.378906 149.210938 174.820312 C 151.960938 185.820312 161.394531 193.195312 172.878906 193.289062 C 176.40625 193.320312 179.925781 193.296875 183.550781 193.496094 C 176.574219 195.585938 170.992188 199.398438 167.503906 205.914062 C 164.035156 212.394531 163.753906 219.070312 166.171875 225.964844 C 169.757812 236.210938 181.214844 242.816406 192.355469 240.996094 C 203.714844 239.140625 212.195312 229.414062 212.472656 217.925781 C 212.753906 206.050781 204.5625 196.007812 192.613281 193.589844 C 195.042969 193.1875 288.445312 193.007812 295.886719 193.539062 C 288.925781 195.601562 283.339844 199.394531 279.839844 205.886719 C 276.296875 212.464844 276.042969 219.253906 278.5625 226.191406 C 282.339844 236.625 293.957031 242.949219 305.441406 240.875 C 316.421875 238.898438 324.757812 228.796875 324.804688 217.417969 C 324.851562 205.769531 316.589844 195.859375 304.941406 193.296875 C 308.722656 193.296875 312.511719 193.308594 316.300781 193.289062 C 321.304688 193.265625 324.757812 190.046875 324.800781 185.402344 C 324.851562 180.617188 321.378906 177.285156 316.257812 177.285156 C 268.972656 177.273438 221.695312 177.273438 174.414062 177.292969 C 172.347656 177.292969 170.328125 177.15625 168.511719 176.074219 C 165.703125 174.398438 164.128906 170.90625 164.773438 167.886719 C 165.550781 164.28125 168.175781 161.832031 171.882812 161.351562 C 172.929688 161.222656 174.007812 161.265625 175.070312 161.265625 C 221.640625 161.265625 268.214844 161.265625 314.785156 161.265625 C 321.078125 161.265625 323.390625 159.574219 325.105469 153.558594 C 335.296875 117.832031 345.46875 82.09375 355.65625 46.371094 C 355.914062 45.488281 355.855469 44.445312 356.746094 43.824219 C 356.746094 42.222656 356.746094 40.621094 356.746094 39.019531 C 354.796875 34.609375 351.472656 33.0625 346.652344 33.070312 "/></g><g clip-rule="nonzero" clip-path="url(#f375453835)"><path style=" stroke:none;fill-rule:nonzero;fill:#ce336f;fill-opacity:1;" d="M 244.617188 75.757812 C 247.046875 75.644531 249.066406 74.628906 250.773438 72.914062 C 257.808594 65.839844 264.859375 58.789062 271.878906 51.703125 C 275.425781 48.132812 275.664062 43.488281 272.542969 40.363281 C 269.417969 37.242188 264.808594 37.5 261.238281 41.054688 C 256.390625 45.871094 251.527344 50.667969 246.777344 55.578125 C 245.363281 57.042969 244.53125 57.457031 242.878906 55.738281 C 239.644531 52.371094 234.984375 52.363281 231.972656 55.371094 C 228.960938 58.394531 229.050781 62.996094 232.269531 66.355469 C 234.691406 68.882812 237.210938 71.3125 239.671875 73.804688 C 241.035156 75.191406 242.703125 75.765625 244.617188 75.757812 Z M 276.167969 100.089844 C 269.316406 103.230469 262.210938 105.382812 254.625 105.714844 C 245.375 106.125 236.671875 103.988281 228.355469 100.042969 C 224.675781 97.796875 221 95.558594 217.746094 92.683594 C 212.546875 88.085938 208.082031 82.835938 205.183594 76.542969 C 200.691406 66.796875 198.726562 56.523438 200.320312 45.746094 C 204.285156 19.492188 226.488281 0.125 253.398438 0.695312 C 278.441406 1.222656 299.824219 18.863281 304.203125 45.746094 C 306.304688 61.640625 301.765625 75.542969 291.65625 87.765625 C 287.359375 92.960938 281.882812 96.679688 276.167969 100.089844 "/></g><g clip-rule="nonzero" clip-path="url(#55e141245e)"><g clip-rule="nonzero" clip-path="url(#c8d5be6a73)"><g transform="matrix(1,0,0,1,40,42)"><g id="d8c265542a" clip-path="url(#6d1eed074c)"><g clip-rule="nonzero" clip-path="url(#3276b81166)"><g clip-rule="nonzero" clip-path="url(#e565012160)"><path style=" stroke:none;fill-rule:nonzero;fill:#e67319;fill-opacity:1;" d="M 0.09375 0.402344 L 86.515625 0.402344 L 86.515625 11.847656 L 0.09375 11.847656 Z M 0.09375 0.402344 "/></g></g></g></g></g></g><g clip-rule="nonzero" clip-path="url(#58b4185540)"><g clip-rule="nonzero" clip-path="url(#5359674496)"><g transform="matrix(1,0,0,1,0,74)"><g id="5c25b1341b" clip-path="url(#e2de9f51a1)"><g clip-rule="nonzero" clip-path="url(#0691211b2d)"><g clip-rule="nonzero" clip-path="url(#9a69786fd9)"><path style=" stroke:none;fill-rule:nonzero;fill:#e67319;fill-opacity:1;" d="M 0 0.777344 L 126.527344 0.777344 L 126.527344 12.222656 L 0 12.222656 Z M 0 0.777344 "/></g></g></g></g></g></g><g clip-rule="nonzero" clip-path="url(#6ff5f21592)"><g clip-rule="nonzero" clip-path="url(#1040ef452c)"><g transform="matrix(1,0,0,1,40,106)"><g id="b8796b05d5" clip-path="url(#57c36cf30c)"><g clip-rule="nonzero" clip-path="url(#21aba217c2)"><g clip-rule="nonzero" clip-path="url(#0785477826)"><path style=" stroke:none;fill-rule:nonzero;fill:#e67319;fill-opacity:1;" d="M 0.09375 0.679688 L 86.515625 0.679688 L 86.515625 12.125 L 0.09375 12.125 Z M 0.09375 0.679688 "/></g></g></g></g></g></g></g></g></g></g></svg>